<svg xmlns="http://www.w3.org/2000/svg" viewBox="0 0 1000 1000"><defs><style>.cls-1{fill:#78cfdf;}.cls-2{fill:#242424;}.cls-3{fill:#c4999e;}.cls-4{fill:#ebebeb;}.cls-5{fill:#f7ec13;}</style></defs><title>Artboard 1</title><g id="Cloud"><path class="cls-1" d="M460.6,459.37h-.68a47.22,47.22,0,0,0-77.43-43.7,98.25,98.25,0,0,0-187-26.64A66.82,66.82,0,0,0,154,409.13a51.29,51.29,0,0,0-81.51,57.94,39.12,39.12,0,0,0-3.92-.2A37.64,37.64,0,1,0,77.7,541a50.72,50.72,0,0,0,89,27.89,44.32,44.32,0,0,0,35.42,17.64,46,46,0,0,0,6-.42,68.3,68.3,0,0,0,135.13-8.51,59.31,59.31,0,0,0,82.11-54.74,60.11,60.11,0,0,0-.48-7.4,39.4,39.4,0,1,0,35.68-56.11Z"/></g><g id="Ñëîé_1" data-name="Ñëîé 1"><path class="cls-2" d="M197.84,458.6c-23.62,68-24.54,144.28,8.82,209.56,4.84,9.42,20.82,46.23,31.2,49,24.9,6.56,79.19-81.05,94.54-96.88C352,600,387.32,584.73,386.55,552.9l.51-3.71C345.4,497.58,210.89,457.14,197.84,458.6Z"/><path class="cls-3" d="M220.84,489.17c-17.43,50.24-18.11,106.58,6.54,154.81,3.55,6.92,15.36,34.13,23,36.13,18.39,4.86,58.52-59.89,69.82-71.55,14.49-15,40.57-26.24,40-49.72l.37-2.79C329.83,518,230.5,488.11,220.84,489.17Z"/><path class="cls-2" d="M873.3,663.05c23.2-69.9,8.76-145-27.82-208.21-13.85.77-146.89,62.85-181.14,120.61l1.19,3.61c4.8,31.47,44.32,40.74,68.32,57.46,18.75,13.07,90.76,90.52,115.59,79.94C859.79,712.09,869.92,673.15,873.3,663.05Z"/><path class="cls-3" d="M849.56,644.23c17.64-53.12,6.67-110.15-21.18-158.18-10.48.59-111.57,47.74-137.58,91.64l.89,2.74c3.64,23.9,33.68,30.92,51.93,43.65,14.21,9.93,68.94,68.79,87.8,60.75C839.26,681.5,847,651.93,849.56,644.23Z"/><path class="cls-4" d="M825.61,711.91c-4.12-6.41-3.84-16-5.58-23.3-3.29-13.68-4.72-27.66-12.77-39.59-2.67-4-2.9-7.85-1.65-11.16a36.46,36.46,0,0,1-4-2.3,8.72,8.72,0,0,1-3.56-2.74.87.87,0,0,0-.2-.15.05.05,0,0,1,.06,0c-.41-.59-.79-1.24-1.17-1.92l-.17.19-.2-.46a.07.07,0,0,1,0-.06,8.6,8.6,0,0,1-4.57-8.58,11.48,11.48,0,0,1-1.53-1.46c-18.22-24.15-43.94-34.63-69.85-48.45-22.06-11.73-41.63-23.82-63.83-29.26-7.16-4.5-14.38-6.46-57-15.2-77.72-14.36-157.76-12.65-228,14.46C279.61,577.25,206.26,661.1,213.32,761.42c8.05,114,138.52,146.82,237.53,157.19,119.6,12.55,253.18,1.5,336.38-83.89,34.39-35.23,55-77.36,57.73-118.48C838.92,719.72,830.46,719.44,825.61,711.91Z"/><path class="cls-2" d="M751.71,576.42A637.53,637.53,0,0,0,635.88,535.2c-17.45-2.93-45.62,27.76-60.41,43.29-41,43.06,1.24,93.91,48.11,120.68,11.43-.17,22.66.17,33.12,2,53.24,9.53,131.1,62,181,40.24,4.68-2.05,4.84-8.82,5.42-9C853.92,672.4,827.91,612.24,751.71,576.42Z"/></g><g id="Star"><polygon class="cls-5" points="906.93 390.35 788.15 369.06 703.27 454.84 686.81 335.3 579 281.08 687.61 228.49 705.86 109.2 789.44 196.24 908.53 176.73 851.58 283.12 906.93 390.35"/></g></svg>